<?xml version='1.0' encoding='utf-8'?>
<svg version="1.0" xmlns="http://www.w3.org/2000/svg" width="512.000000pt" height="512.000000pt" viewBox="0 0 512.000000 512.000000" preserveAspectRatio="xMidYMid meet">
  <metadata>Created for Safari pinned tab</metadata>
  <g transform="translate(0.000000,512.000000) scale(0.100000,-0.100000)" fill="#000000" stroke="none">
    <path d="M0 0h5120v10h-5120z M0 10h5120v10h-5120z M0 20h5120v10h-5120z M0 30h5120v10h-5120z M0 40h5120v10h-5120z M0 50h5120v10h-5120z M0 60h5120v10h-5120z M0 70h5120v10h-5120z M0 80h5120v10h-5120z M0 90h5120v10h-5120z M0 100h5120v10h-5120z M0 110h5120v10h-5120z M0 120h5120v10h-5120z M0 130h5120v10h-5120z M0 140h5120v10h-5120z M0 150h5120v10h-5120z M0 160h5120v10h-5120z M0 170h5120v10h-5120z M0 180h5120v10h-5120z M0 190h5120v10h-5120z M0 200h5120v10h-5120z M0 210h5120v10h-5120z M0 220h5120v10h-5120z M0 230h5120v10h-5120z M0 240h5120v10h-5120z M0 250h5120v10h-5120z M0 260h5120v10h-5120z M0 270h5120v10h-5120z M0 280h5120v10h-5120z M0 290h5120v10h-5120z M0 300h5120v10h-5120z M0 310h5120v10h-5120z M0 320h5120v10h-5120z M0 330h5120v10h-5120z M0 340h5120v10h-5120z M0 350h5120v10h-5120z M0 360h5120v10h-5120z M0 370h5120v10h-5120z M0 380h5120v10h-5120z M0 390h2420v10h-2420z M2430 390h270v10h-270z M2720 390h10v10h-10z M2740 390h2380v10h-2380z M0 400h2420v10h-2420z M2720 400h10v10h-10z M2740 400h2380v10h-2380z M0 410h2390v10h-2390z M2400 410h20v10h-20z M2430 410h270v10h-270z M2720 410h10v10h-10z M2740 410h2380v10h-2380z M0 420h2390v10h-2390z M2400 420h20v10h-20z M2430 420h270v10h-270z M2720 420h10v10h-10z M2740 420h2380v10h-2380z M0 430h2390v10h-2390z M2400 430h20v10h-20z M2430 430h270v10h-270z M2720 430h10v10h-10z M2740 430h2380v10h-2380z M0 440h2390v10h-2390z M2400 440h20v10h-20z M2430 440h270v10h-270z M2720 440h10v10h-10z M2740 440h2380v10h-2380z M0 450h2700v10h-2700z M2720 450h10v10h-10z M2740 450h2380v10h-2380z M0 460h2420v10h-2420z M2430 460h270v10h-270z M2720 460h10v10h-10z M2740 460h2380v10h-2380z M0 470h2420v10h-2420z M2430 470h270v10h-270z M2720 470h10v10h-10z M2740 470h2380v10h-2380z M0 480h2420v10h-2420z M2430 480h270v10h-270z M2720 480h10v10h-10z M2740 480h2380v10h-2380z M0 490h2420v10h-2420z M2430 490h270v10h-270z M2720 490h10v10h-10z M2740 490h2380v10h-2380z M0 500h2420v10h-2420z M2430 500h270v10h-270z M2720 500h10v10h-10z M2740 500h2380v10h-2380z M0 510h2420v10h-2420z M2430 510h270v10h-270z M2720 510h2400v10h-2400z M0 520h2420v10h-2420z M2430 520h270v10h-270z M2720 520h2400v10h-2400z M0 530h2420v10h-2420z M2440 530h250v10h-250z M2720 530h2400v10h-2400z M0 540h2390v10h-2390z M2450 540h240v10h-240z M2720 540h2400v10h-2400z M0 550h2400v10h-2400z M2410 550h20v10h-20z M2450 550h210v10h-210z M2700 550h2420v10h-2420z M0 560h2400v10h-2400z M2410 560h20v10h-20z M2450 560h240v10h-240z M2700 560h10v10h-10z M2730 560h2390v10h-2390z M0 570h2400v10h-2400z M2410 570h20v10h-20z M2450 570h240v10h-240z M2700 570h20v10h-20z M2730 570h2390v10h-2390z M0 580h2400v10h-2400z M2410 580h20v10h-20z M2450 580h240v10h-240z M2700 580h20v10h-20z M2730 580h2390v10h-2390z M0 590h2430v10h-2430z M2440 590h250v10h-250z M2700 590h20v10h-20z M2730 590h2390v10h-2390z M0 600h2430v10h-2430z M2440 600h250v10h-250z M2700 600h20v10h-20z M2730 600h2390v10h-2390z M0 610h2430v10h-2430z M2440 610h250v10h-250z M2700 610h20v10h-20z M2730 610h2390v10h-2390z M0 620h2430v10h-2430z M2440 620h250v10h-250z M2700 620h2420v10h-2420z M0 630h2430v10h-2430z M2440 630h250v10h-250z M2700 630h2420v10h-2420z M0 640h2390v10h-2390z M2410 640h20v10h-20z M2440 640h220v10h-220z M2670 640h20v10h-20z M2700 640h20v10h-20z M2730 640h10v10h-10z M2750 640h2370v10h-2370z M0 650h2410v10h-2410z M2470 650h190v10h-190z M2720 650h2400v10h-2400z M0 660h2410v10h-2410z M2430 660h280v10h-280z M2720 660h2400v10h-2400z M0 670h2390v10h-2390z M2400 670h10v10h-10z M2430 670h280v10h-280z M2720 670h2400v10h-2400z M0 680h2390v10h-2390z M2400 680h10v10h-10z M2430 680h280v10h-280z M2720 680h2400v10h-2400z M0 690h2390v10h-2390z M2400 690h10v10h-10z M2430 690h280v10h-280z M2720 690h2400v10h-2400z M0 700h2390v10h-2390z M2400 700h10v10h-10z M2430 700h280v10h-280z M2720 700h2400v10h-2400z M0 710h2390v10h-2390z M2400 710h10v10h-10z M2430 710h280v10h-280z M2730 710h2390v10h-2390z M0 720h2390v10h-2390z M2400 720h10v10h-10z M2430 720h280v10h-280z M2730 720h10v10h-10z M2750 720h2370v10h-2370z M0 730h2390v10h-2390z M2400 730h10v10h-10z M2430 730h280v10h-280z M2730 730h10v10h-10z M2750 730h2370v10h-2370z M0 740h2390v10h-2390z M2400 740h10v10h-10z M2430 740h280v10h-280z M2730 740h10v10h-10z M2750 740h2370v10h-2370z M0 750h2390v10h-2390z M2400 750h10v10h-10z M2430 750h280v10h-280z M2730 750h10v10h-10z M2750 750h2370v10h-2370z M0 760h2390v10h-2390z M2400 760h10v10h-10z M2430 760h270v10h-270z M2730 760h10v10h-10z M2750 760h2370v10h-2370z M0 770h2410v10h-2410z M2460 770h210v10h-210z M2730 770h10v10h-10z M2750 770h2370v10h-2370z M0 780h2450v10h-2450z M2460 780h210v10h-210z M2680 780h20v10h-20z M2730 780h10v10h-10z M2750 780h2370v10h-2370z M0 790h2450v10h-2450z M2460 790h210v10h-210z M2680 790h2440v10h-2440z M0 800h2450v10h-2450z M2460 800h210v10h-210z M2680 800h2440v10h-2440z M0 810h2410v10h-2410z M2420 810h30v10h-30z M2460 810h210v10h-210z M2690 810h10v10h-10z M2710 810h2410v10h-2410z M0 820h2410v10h-2410z M2420 820h30v10h-30z M2460 820h210v10h-210z M2690 820h2430v10h-2430z M0 830h2440v10h-2440z M2460 830h220v10h-220z M2690 830h20v10h-20z M2720 830h2400v10h-2400z M0 840h2440v10h-2440z M2450 840h230v10h-230z M2700 840h10v10h-10z M2720 840h2400v10h-2400z M0 850h2410v10h-2410z M2420 850h20v10h-20z M2450 850h230v10h-230z M2700 850h2420v10h-2420z M0 860h2440v10h-2440z M2450 860h230v10h-230z M2700 860h2420v10h-2420z M0 870h2380v10h-2380z M2390 870h50v10h-50z M2450 870h230v10h-230z M2710 870h70v10h-70z M2790 870h2330v10h-2330z M0 880h2310v10h-2310z M2340 880h100v10h-100z M2450 880h230v10h-230z M2700 880h120v10h-120z M2850 880h50v10h-50z M2910 880h2210v10h-2210z M0 890h2440v10h-2440z M2450 890h230v10h-230z M2690 890h240v10h-240z M2960 890h40v10h-40z M3010 890h2110v10h-2110z M0 900h2120v10h-2120z M2130 900h300v10h-300z M2450 900h250v10h-250z M2710 900h320v10h-320z M3040 900h2080v10h-2080z M0 910h2290v10h-2290z M2430 910h10v10h-10z M2450 910h360v10h-360z M2820 910h10v10h-10z M2850 910h240v10h-240z M3100 910h2020v10h-2020z M0 920h2210v10h-2210z M2420 920h20v10h-20z M2450 920h240v10h-240z M2700 920h250v10h-250z M2960 920h2160v10h-2160z M0 930h2030v10h-2030z M2040 930h120v10h-120z M2440 930h250v10h-250z M2700 930h2420v10h-2420z M0 940h1950v10h-1950z M1960 940h140v10h-140z M2420 940h10v10h-10z M2440 940h250v10h-250z M2700 940h2420v10h-2420z M0 950h1920v10h-1920z M1930 950h120v10h-120z M2420 950h10v10h-10z M2440 950h250v10h-250z M2700 950h2420v10h-2420z M0 960h1890v10h-1890z M1900 960h110v10h-110z M2420 960h10v10h-10z M2440 960h250v10h-250z M2700 960h2420v10h-2420z M0 970h1980v10h-1980z M2420 970h10v10h-10z M2440 970h250v10h-250z M2700 970h2420v10h-2420z M0 980h1940v10h-1940z M2420 980h10v10h-10z M2440 980h250v10h-250z M2700 980h2420v10h-2420z M0 990h1910v10h-1910z M2420 990h10v10h-10z M2440 990h2680v10h-2680z M0 1000h1880v10h-1880z M2440 1000h2680v10h-2680z M0 1010h1850v10h-1850z M2430 1010h2690v10h-2690z M0 1020h1820v10h-1820z M2430 1020h270v10h-270z M2710 1020h2410v10h-2410z M0 1030h1800v10h-1800z M2410 1030h10v10h-10z M2430 1030h2690v10h-2690z M0 1040h1770v10h-1770z M2430 1040h270v10h-270z M2710 1040h20v10h-20z M2740 1040h2380v10h-2380z M0 1050h1750v10h-1750z M2430 1050h2690v10h-2690z M0 1060h1730v10h-1730z M2410 1060h10v10h-10z M2430 1060h2690v10h-2690z M0 1070h1710v10h-1710z M2430 1070h2690v10h-2690z M0 1080h1690v10h-1690z M2420 1080h2700v10h-2700z M0 1090h1670v10h-1670z M2420 1090h2700v10h-2700z M0 1100h1660v10h-1660z M2390 1100h20v10h-20z M2420 1100h2700v10h-2700z M0 1110h1660v10h-1660z M2420 1110h2700v10h-2700z M0 1120h1660v10h-1660z M2380 1120h2740v10h-2740z M0 1130h1660v10h-1660z M2350 1130h2770v10h-2770z M0 1140h1660v10h-1660z M2320 1140h1300v10h-1300z M3630 1140h1490v10h-1490z M0 1150h1660v10h-1660z M2290 1150h1330v10h-1330z M3630 1150h1490v10h-1490z M0 1160h1660v10h-1660z M2270 1160h2850v10h-2850z M0 1170h1660v10h-1660z M2240 1170h2880v10h-2880z M0 1180h1660v10h-1660z M2220 1180h2900v10h-2900z M0 1190h1660v10h-1660z M2190 1190h2930v10h-2930z M0 1200h1660v10h-1660z M2170 1200h2950v10h-2950z M0 1210h1660v10h-1660z M2150 1210h2970v10h-2970z M0 1220h1660v10h-1660z M2130 1220h2990v10h-2990z M0 1230h1660v10h-1660z M2100 1230h3020v10h-3020z M0 1240h1660v10h-1660z M2080 1240h3040v10h-3040z M0 1250h1620v10h-1620z M1630 1250h30v10h-30z M2060 1250h3060v10h-3060z M0 1260h1620v10h-1620z M1630 1260h30v10h-30z M2050 1260h3070v10h-3070z M0 1270h1620v10h-1620z M1630 1270h30v10h-30z M2030 1270h3090v10h-3090z M0 1280h1620v10h-1620z M1630 1280h30v10h-30z M2010 1280h3110v10h-3110z M0 1290h1660v10h-1660z M1990 1290h3130v10h-3130z M0 1300h1660v10h-1660z M1970 1300h3150v10h-3150z M0 1310h1660v10h-1660z M1960 1310h3160v10h-3160z M0 1320h1660v10h-1660z M1940 1320h3180v10h-3180z M0 1330h1660v10h-1660z M1920 1330h3200v10h-3200z M0 1340h1660v10h-1660z M1910 1340h3210v10h-3210z M0 1350h1660v10h-1660z M1890 1350h3230v10h-3230z M0 1360h1660v10h-1660z M1880 1360h3240v10h-3240z M0 1370h1660v10h-1660z M1860 1370h3260v10h-3260z M0 1380h1660v10h-1660z M1850 1380h3270v10h-3270z M0 1390h1660v10h-1660z M1840 1390h3280v10h-3280z M0 1400h1660v10h-1660z M1820 1400h3300v10h-3300z M0 1410h1660v10h-1660z M1810 1410h3310v10h-3310z M0 1420h1660v10h-1660z M1800 1420h3320v10h-3320z M0 1430h1660v10h-1660z M1780 1430h3340v10h-3340z M0 1440h1660v10h-1660z M1770 1440h3350v10h-3350z M0 1450h1660v10h-1660z M1760 1450h3360v10h-3360z M0 1460h1660v10h-1660z M1750 1460h3370v10h-3370z M0 1470h1660v10h-1660z M1730 1470h3390v10h-3390z M0 1480h1660v10h-1660z M1720 1480h3400v10h-3400z M0 1490h1660v10h-1660z M1720 1490h3400v10h-3400z M0 1500h1660v10h-1660z M1720 1500h3400v10h-3400z M0 1510h1660v10h-1660z M1720 1510h1040v10h-1040z M2770 1510h2350v10h-2350z M0 1520h1660v10h-1660z M1720 1520h100v10h-100z M2000 1520h150v10h-150z M2330 1520h130v10h-130z M2500 1520h130v10h-130z M2640 1520h10v10h-10z M2660 1520h2460v10h-2460z M0 1530h1660v10h-1660z M1720 1530h100v10h-100z M2000 1530h150v10h-150z M2320 1530h140v10h-140z M2470 1530h20v10h-20z M2500 1530h130v10h-130z M2640 1530h10v10h-10z M2660 1530h2460v10h-2460z M0 1540h1660v10h-1660z M1720 1540h100v10h-100z M2000 1540h150v10h-150z M2320 1540h140v10h-140z M2470 1540h10v10h-10z M2490 1540h140v10h-140z M2640 1540h10v10h-10z M2660 1540h470v10h-470z M3140 1540h1980v10h-1980z M0 1550h1660v10h-1660z M1720 1550h100v10h-100z M2000 1550h150v10h-150z M2320 1550h160v10h-160z M2490 1550h140v10h-140z M2640 1550h10v10h-10z M2660 1550h200v10h-200z M2870 1550h240v10h-240z M3120 1550h2000v10h-2000z M0 1560h1660v10h-1660z M1720 1560h100v10h-100z M2000 1560h150v10h-150z M2320 1560h310v10h-310z M2640 1560h120v10h-120z M2770 1560h2350v10h-2350z M0 1570h1660v10h-1660z M1720 1570h100v10h-100z M2000 1570h150v10h-150z M2320 1570h140v10h-140z M2470 1570h10v10h-10z M2490 1570h30v10h-30z M2530 1570h60v10h-60z M2600 1570h30v10h-30z M2640 1570h20v10h-20z M2670 1570h90v10h-90z M2770 1570h2350v10h-2350z M0 1580h1660v10h-1660z M1720 1580h100v10h-100z M2000 1580h150v10h-150z M2320 1580h140v10h-140z M2470 1580h10v10h-10z M2490 1580h90v10h-90z M2600 1580h30v10h-30z M2640 1580h20v10h-20z M2670 1580h90v10h-90z M2770 1580h2350v10h-2350z M0 1590h1660v10h-1660z M1710 1590h110v10h-110z M2000 1590h150v10h-150z M2320 1590h140v10h-140z M2470 1590h10v10h-10z M2490 1590h100v10h-100z M2600 1590h30v10h-30z M2640 1590h20v10h-20z M2670 1590h90v10h-90z M2770 1590h300v10h-300z M3080 1590h2040v10h-2040z M0 1600h1660v10h-1660z M1710 1600h110v10h-110z M2000 1600h150v10h-150z M2320 1600h140v10h-140z M2470 1600h10v10h-10z M2490 1600h80v10h-80z M2580 1600h10v10h-10z M2600 1600h2520v10h-2520z M0 1610h1660v10h-1660z M1710 1610h110v10h-110z M2000 1610h150v10h-150z M2320 1610h140v10h-140z M2470 1610h10v10h-10z M2490 1610h70v10h-70z M2570 1610h20v10h-20z M2600 1610h30v10h-30z M2640 1610h2480v10h-2480z M0 1620h1660v10h-1660z M1710 1620h110v10h-110z M2000 1620h150v10h-150z M2320 1620h140v10h-140z M2470 1620h10v10h-10z M2490 1620h70v10h-70z M2570 1620h20v10h-20z M2600 1620h2520v10h-2520z M0 1630h1660v10h-1660z M1710 1630h110v10h-110z M2000 1630h150v10h-150z M2320 1630h140v10h-140z M2470 1630h10v10h-10z M2490 1630h70v10h-70z M2570 1630h20v10h-20z M2600 1630h170v10h-170z M2780 1630h2340v10h-2340z M0 1640h1660v10h-1660z M1710 1640h110v10h-110z M2000 1640h150v10h-150z M2320 1640h140v10h-140z M2480 1640h80v10h-80z M2570 1640h20v10h-20z M2600 1640h170v10h-170z M2780 1640h150v10h-150z M2940 1640h2180v10h-2180z M0 1650h1660v10h-1660z M1710 1650h110v10h-110z M2000 1650h150v10h-150z M2320 1650h140v10h-140z M2470 1650h90v10h-90z M2570 1650h20v10h-20z M2600 1650h170v10h-170z M2780 1650h2340v10h-2340z M0 1660h1660v10h-1660z M1710 1660h110v10h-110z M2000 1660h150v10h-150z M2320 1660h140v10h-140z M2470 1660h120v10h-120z M2600 1660h170v10h-170z M2780 1660h2340v10h-2340z M0 1670h1660v10h-1660z M1710 1670h110v10h-110z M2000 1670h150v10h-150z M2320 1670h200v10h-200z M2530 1670h60v10h-60z M2600 1670h170v10h-170z M2780 1670h160v10h-160z M2950 1670h80v10h-80z M3040 1670h2080v10h-2080z M0 1680h1660v10h-1660z M1710 1680h120v10h-120z M2000 1680h150v10h-150z M2320 1680h200v10h-200z M2530 1680h2590v10h-2590z M0 1690h1660v10h-1660z M1690 1690h10v10h-10z M1710 1690h120v10h-120z M2000 1690h150v10h-150z M2320 1690h200v10h-200z M2530 1690h2590v10h-2590z M0 1700h1660v10h-1660z M1690 1700h10v10h-10z M1710 1700h110v10h-110z M2000 1700h150v10h-150z M2320 1700h200v10h-200z M2530 1700h2590v10h-2590z M0 1710h1660v10h-1660z M1710 1710h110v10h-110z M2000 1710h150v10h-150z M2320 1710h200v10h-200z M2530 1710h2590v10h-2590z M0 1720h1660v10h-1660z M1710 1720h110v10h-110z M2000 1720h150v10h-150z M2320 1720h160v10h-160z M2490 1720h30v10h-30z M2530 1720h250v10h-250z M2790 1720h2330v10h-2330z M0 1730h1660v10h-1660z M1680 1730h10v10h-10z M1710 1730h110v10h-110z M2000 1730h150v10h-150z M2320 1730h160v10h-160z M2490 1730h30v10h-30z M2530 1730h250v10h-250z M2790 1730h2330v10h-2330z M0 1740h1660v10h-1660z M1710 1740h110v10h-110z M2000 1740h150v10h-150z M2320 1740h150v10h-150z M2480 1740h40v10h-40z M2530 1740h2590v10h-2590z M0 1750h1660v10h-1660z M1710 1750h110v10h-110z M2000 1750h150v10h-150z M2320 1750h140v10h-140z M2470 1750h2650v10h-2650z M0 1760h1570v10h-1570z M1590 1760h10v10h-10z M1610 1760h50v10h-50z M1670 1760h30v10h-30z M1710 1760h110v10h-110z M2000 1760h150v10h-150z M2320 1760h140v10h-140z M2490 1760h30v10h-30z M2530 1760h20v10h-20z M2560 1760h2560v10h-2560z M0 1770h1700v10h-1700z M1710 1770h110v10h-110z M2000 1770h150v10h-150z M2320 1770h230v10h-230z M2560 1770h2560v10h-2560z M0 1780h1660v10h-1660z M1680 1780h20v10h-20z M1710 1780h110v10h-110z M2000 1780h150v10h-150z M2320 1780h2800v10h-2800z M0 1790h1530v10h-1530z M1540 1790h50v10h-50z M1650 1790h10v10h-10z M1690 1790h10v10h-10z M1710 1790h110v10h-110z M2000 1790h150v10h-150z M2320 1790h2800v10h-2800z M0 1800h1560v10h-1560z M1590 1800h60v10h-60z M1700 1800h130v10h-130z M2000 1800h150v10h-150z M2320 1800h1300v10h-1300z M3630 1800h1490v10h-1490z M0 1810h1510v10h-1510z M1520 1810h30v10h-30z M1570 1810h100v10h-100z M1710 1810h120v10h-120z M2000 1810h150v10h-150z M2320 1810h2800v10h-2800z M0 1820h1500v10h-1500z M1510 1820h20v10h-20z M1550 1820h140v10h-140z M1710 1820h120v10h-120z M2000 1820h150v10h-150z M2320 1820h470v10h-470z M2800 1820h2320v10h-2320z M0 1830h1490v10h-1490z M1510 1830h20v10h-20z M1540 1830h160v10h-160z M1720 1830h110v10h-110z M2000 1830h150v10h-150z M2320 1830h470v10h-470z M2800 1830h2320v10h-2320z M0 1840h1490v10h-1490z M1500 1840h20v10h-20z M1530 1840h180v10h-180z M1720 1840h110v10h-110z M2000 1840h150v10h-150z M2320 1840h470v10h-470z M2800 1840h2320v10h-2320z M0 1850h1480v10h-1480z M1490 1850h20v10h-20z M1530 1850h70v10h-70z M1630 1850h80v10h-80z M1730 1850h100v10h-100z M2000 1850h150v10h-150z M2320 1850h470v10h-470z M2800 1850h2320v10h-2320z M0 1860h1480v10h-1480z M1490 1860h20v10h-20z M1520 1860h60v10h-60z M1630 1860h90v10h-90z M1740 1860h90v10h-90z M2000 1860h150v10h-150z M2320 1860h470v10h-470z M2800 1860h2320v10h-2320z M0 1870h1510v10h-1510z M1520 1870h50v10h-50z M1640 1870h80v10h-80z M1740 1870h90v10h-90z M2000 1870h150v10h-150z M2320 1870h2800v10h-2800z M0 1880h1500v10h-1500z M1510 1880h60v10h-60z M1630 1880h10v10h-10z M1650 1880h80v10h-80z M1740 1880h90v10h-90z M2000 1880h150v10h-150z M2320 1880h2800v10h-2800z M0 1890h1500v10h-1500z M1510 1890h50v10h-50z M1630 1890h100v10h-100z M1750 1890h80v10h-80z M2000 1890h150v10h-150z M2320 1890h110v10h-110z M2450 1890h20v10h-20z M2480 1890h2640v10h-2640z M0 1900h1500v10h-1500z M1510 1900h50v10h-50z M1620 1900h110v10h-110z M1750 1900h80v10h-80z M2000 1900h150v10h-150z M2320 1900h110v10h-110z M2440 1900h30v10h-30z M2480 1900h30v10h-30z M2520 1900h60v10h-60z M2610 1900h2510v10h-2510z M0 1910h1460v10h-1460z M1470 1910h30v10h-30z M1510 1910h50v10h-50z M1610 1910h120v10h-120z M1750 1910h80v10h-80z M2000 1910h150v10h-150z M2320 1910h110v10h-110z M2440 1910h30v10h-30z M2480 1910h30v10h-30z M2520 1910h2600v10h-2600z M0 1920h1460v10h-1460z M1470 1920h30v10h-30z M1510 1920h50v10h-50z M1570 1920h10v10h-10z M1600 1920h130v10h-130z M1750 1920h80v10h-80z M2000 1920h150v10h-150z M2320 1920h110v10h-110z M2440 1920h30v10h-30z M2480 1920h30v10h-30z M2520 1920h80v10h-80z M2610 1920h2510v10h-2510z M0 1930h1470v10h-1470z M1480 1930h10v10h-10z M1510 1930h220v10h-220z M1740 1930h90v10h-90z M2000 1930h150v10h-150z M2320 1930h110v10h-110z M2440 1930h70v10h-70z M2520 1930h80v10h-80z M2610 1930h2510v10h-2510z M0 1940h1490v10h-1490z M1510 1940h220v10h-220z M1740 1940h90v10h-90z M2000 1940h150v10h-150z M2320 1940h110v10h-110z M2440 1940h70v10h-70z M2520 1940h80v10h-80z M2610 1940h190v10h-190z M2810 1940h2310v10h-2310z M0 1950h1470v10h-1470z M1480 1950h30v10h-30z M1520 1950h200v10h-200z M1730 1950h100v10h-100z M2000 1950h150v10h-150z M2320 1950h120v10h-120z M2450 1950h60v10h-60z M2520 1950h20v10h-20z M2550 1950h50v10h-50z M2610 1950h190v10h-190z M2810 1950h2310v10h-2310z M0 1960h1510v10h-1510z M1520 1960h200v10h-200z M1730 1960h100v10h-100z M2000 1960h150v10h-150z M2320 1960h120v10h-120z M2450 1960h60v10h-60z M2520 1960h20v10h-20z M2550 1960h50v10h-50z M2610 1960h2510v10h-2510z M0 1970h1470v10h-1470z M1480 1970h30v10h-30z M1520 1970h210v10h-210z M1740 1970h90v10h-90z M2000 1970h150v10h-150z M2320 1970h190v10h-190z M2520 1970h20v10h-20z M2550 1970h50v10h-50z M2610 1970h2510v10h-2510z M0 1980h1500v10h-1500z M1510 1980h220v10h-220z M1740 1980h90v10h-90z M2000 1980h150v10h-150z M2320 1980h140v10h-140z M2470 1980h70v10h-70z M2550 1980h50v10h-50z M2610 1980h2510v10h-2510z M0 1990h1470v10h-1470z M1480 1990h20v10h-20z M1520 1990h200v10h-200z M1730 1990h100v10h-100z M2000 1990h150v10h-150z M2320 1990h140v10h-140z M2470 1990h70v10h-70z M2550 1990h50v10h-50z M2610 1990h2510v10h-2510z M0 2000h1480v10h-1480z M1500 2000h10v10h-10z M1530 2000h180v10h-180z M1730 2000h100v10h-100z M2000 2000h150v10h-150z M2320 2000h140v10h-140z M2470 2000h70v10h-70z M2550 2000h50v10h-50z M2610 2000h2510v10h-2510z M0 2010h1510v10h-1510z M1530 2010h170v10h-170z M1720 2010h110v10h-110z M2000 2010h150v10h-150z M2310 2010h230v10h-230z M2550 2010h50v10h-50z M2610 2010h2510v10h-2510z M0 2020h1530v10h-1530z M1540 2020h160v10h-160z M1720 2020h110v10h-110z M2000 2020h150v10h-150z M2310 2020h230v10h-230z M2550 2020h50v10h-50z M2610 2020h200v10h-200z M2820 2020h2300v10h-2300z M0 2030h1500v10h-1500z M1510 2030h20v10h-20z M1540 2030h50v10h-50z M1610 2030h20v10h-20z M1640 2030h70v10h-70z M1720 2030h110v10h-110z M2000 2030h260v10h-260z M2310 2030h230v10h-230z M2550 2030h50v10h-50z M2610 2030h200v10h-200z M2820 2030h2300v10h-2300z M0 2040h1510v10h-1510z M1520 2040h10v10h-10z M1540 2040h50v10h-50z M1610 2040h20v10h-20z M1640 2040h70v10h-70z M1720 2040h110v10h-110z M2000 2040h300v10h-300z M2310 2040h190v10h-190z M2510 2040h30v10h-30z M2550 2040h50v10h-50z M2610 2040h2510v10h-2510z M0 2050h1530v10h-1530z M1540 2050h50v10h-50z M1620 2050h10v10h-10z M1640 2050h70v10h-70z M1720 2050h110v10h-110z M1940 2050h560v10h-560z M2510 2050h30v10h-30z M2550 2050h50v10h-50z M2610 2050h2510v10h-2510z M0 2060h1530v10h-1530z M1540 2060h50v10h-50z M1620 2060h10v10h-10z M1640 2060h70v10h-70z M1720 2060h100v10h-100z M1880 2060h620v10h-620z M2510 2060h30v10h-30z M2550 2060h50v10h-50z M2610 2060h2510v10h-2510z M0 2070h1530v10h-1530z M1540 2070h50v10h-50z M1620 2070h10v10h-10z M1640 2070h70v10h-70z M1720 2070h780v10h-780z M2510 2070h30v10h-30z M2550 2070h50v10h-50z M2610 2070h830v10h-830z M3450 2070h1670v10h-1670z M0 2080h1530v10h-1530z M1540 2080h50v10h-50z M1620 2080h10v10h-10z M1640 2080h860v10h-860z M2510 2080h30v10h-30z M2550 2080h50v10h-50z M2610 2080h790v10h-790z M3450 2080h1670v10h-1670z M0 2090h1530v10h-1530z M1540 2090h60v10h-60z M1620 2090h10v10h-10z M1640 2090h900v10h-900z M2550 2090h50v10h-50z M2610 2090h750v10h-750z M3450 2090h1670v10h-1670z M0 2100h1500v10h-1500z M1510 2100h20v10h-20z M1540 2100h60v10h-60z M1620 2100h10v10h-10z M1640 2100h900v10h-900z M2550 2100h50v10h-50z M2610 2100h110v10h-110z M2730 2100h600v10h-600z M3450 2100h1670v10h-1670z M0 2110h1500v10h-1500z M1510 2110h20v10h-20z M1540 2110h60v10h-60z M1620 2110h640v10h-640z M2270 2110h330v10h-330z M2610 2110h110v10h-110z M2730 2110h570v10h-570z M3450 2110h1670v10h-1670z M0 2120h1500v10h-1500z M1510 2120h20v10h-20z M1540 2120h60v10h-60z M1620 2120h640v10h-640z M2300 2120h240v10h-240z M2550 2120h50v10h-50z M2610 2120h650v10h-650z M3450 2120h1670v10h-1670z M0 2130h1500v10h-1500z M1510 2130h10v10h-10z M1540 2130h60v10h-60z M1620 2130h640v10h-640z M2330 2130h230v10h-230z M2570 2130h650v10h-650z M3450 2130h1670v10h-1670z M0 2140h1500v10h-1500z M1510 2140h20v10h-20z M1540 2140h60v10h-60z M1620 2140h640v10h-640z M2350 2140h250v10h-250z M2610 2140h580v10h-580z M3450 2140h1670v10h-1670z M0 2150h1500v10h-1500z M1510 2150h20v10h-20z M1540 2150h60v10h-60z M1620 2150h640v10h-640z M2380 2150h340v10h-340z M2730 2150h420v10h-420z M3450 2150h1670v10h-1670z M0 2160h1530v10h-1530z M1540 2160h60v10h-60z M1620 2160h640v10h-640z M2400 2160h720v10h-720z M3450 2160h1670v10h-1670z M0 2170h1530v10h-1530z M1540 2170h60v10h-60z M1620 2170h640v10h-640z M2420 2170h670v10h-670z M3450 2170h1670v10h-1670z M0 2180h1530v10h-1530z M1540 2180h60v10h-60z M1620 2180h640v10h-640z M2440 2180h610v10h-610z M3450 2180h1670v10h-1670z M0 2190h1530v10h-1530z M1540 2190h60v10h-60z M1620 2190h640v10h-640z M2470 2190h530v10h-530z M3450 2190h1670v10h-1670z M0 2200h1530v10h-1530z M1540 2200h60v10h-60z M1620 2200h640v10h-640z M2490 2200h460v10h-460z M3450 2200h1670v10h-1670z M0 2210h1530v10h-1530z M1540 2210h60v10h-60z M1620 2210h640v10h-640z M2530 2210h370v10h-370z M3450 2210h1670v10h-1670z M0 2220h1600v10h-1600z M1620 2220h640v10h-640z M2580 2220h250v10h-250z M3450 2220h1670v10h-1670z M0 2230h1530v10h-1530z M1550 2230h50v10h-50z M1620 2230h640v10h-640z M3450 2230h1670v10h-1670z M0 2240h1530v10h-1530z M1550 2240h50v10h-50z M1620 2240h640v10h-640z M3450 2240h1670v10h-1670z M0 2250h1540v10h-1540z M1550 2250h50v10h-50z M1620 2250h640v10h-640z M3440 2250h1680v10h-1680z M0 2260h1540v10h-1540z M1550 2260h50v10h-50z M1620 2260h640v10h-640z M3440 2260h1680v10h-1680z M0 2270h1540v10h-1540z M1550 2270h50v10h-50z M1620 2270h640v10h-640z M3440 2270h60v10h-60z M3510 2270h100v10h-100z M3620 2270h1500v10h-1500z M0 2280h1470v10h-1470z M1480 2280h60v10h-60z M1550 2280h50v10h-50z M1630 2280h630v10h-630z M3440 2280h1680v10h-1680z M0 2290h1540v10h-1540z M1550 2290h50v10h-50z M1620 2290h640v10h-640z M3440 2290h130v10h-130z M3600 2290h1520v10h-1520z M0 2300h1500v10h-1500z M1520 2300h80v10h-80z M1620 2300h640v10h-640z M3440 2300h160v10h-160z M3630 2300h1490v10h-1490z M0 2310h1360v10h-1360z M1370 2310h10v10h-10z M1390 2310h80v10h-80z M1490 2310h110v10h-110z M1630 2310h630v10h-630z M3440 2310h190v10h-190z M3660 2310h90v10h-90z M3760 2310h1360v10h-1360z M0 2320h1330v10h-1330z M1360 2320h70v10h-70z M1450 2320h150v10h-150z M1630 2320h630v10h-630z M3440 2320h60v10h-60z M3510 2320h160v10h-160z M3690 2320h70v10h-70z M3770 2320h10v10h-10z M3790 2320h1330v10h-1330z M0 2330h1320v10h-1320z M1330 2330h70v10h-70z M1420 2330h180v10h-180z M1630 2330h630v10h-630z M3440 2330h80v10h-80z M3560 2330h140v10h-140z M3720 2330h70v10h-70z M3810 2330h1310v10h-1310z M0 2340h1280v10h-1280z M1290 2340h10v10h-10z M1310 2340h60v10h-60z M1390 2340h130v10h-130z M1550 2340h50v10h-50z M1630 2340h630v10h-630z M3440 2340h120v10h-120z M3600 2340h130v10h-130z M3750 2340h1370v10h-1370z M0 2350h1350v10h-1350z M1370 2350h110v10h-110z M1530 2350h70v10h-70z M1630 2350h630v10h-630z M3440 2350h160v10h-160z M3640 2350h110v10h-110z M3780 2350h60v10h-60z M3850 2350h1270v10h-1270z M0 2360h1250v10h-1250z M1260 2360h60v10h-60z M1340 2360h110v10h-110z M1490 2360h110v10h-110z M1630 2360h630v10h-630z M3440 2360h190v10h-190z M3670 2360h110v10h-110z M3800 2360h1320v10h-1320z M0 2370h1220v10h-1220z M1230 2370h70v10h-70z M1320 2370h100v10h-100z M1460 2370h140v10h-140z M1630 2370h630v10h-630z M3440 2370h220v10h-220z M3700 2370h110v10h-110z M3830 2370h60v10h-60z M3910 2370h1210v10h-1210z M0 2380h1270v10h-1270z M1290 2380h100v10h-100z M1430 2380h170v10h-170z M1630 2380h630v10h-630z M3440 2380h250v10h-250z M3730 2380h100v10h-100z M3850 2380h60v10h-60z M3920 2380h1200v10h-1200z M0 2390h1210v10h-1210z M1220 2390h30v10h-30z M1270 2390h90v10h-90z M1400 2390h200v10h-200z M1630 2390h630v10h-630z M3440 2390h280v10h-280z M3760 2390h100v10h-100z M3870 2390h1250v10h-1250z M0 2400h1190v10h-1190z M1200 2400h140v10h-140z M1380 2400h220v10h-220z M1630 2400h630v10h-630z M3440 2400h310v10h-310z M3790 2400h100v10h-100z M3900 2400h1220v10h-1220z M0 2410h1190v10h-1190z M1200 2410h30v10h-30z M1240 2410h80v10h-80z M1350 2410h250v10h-250z M1630 2410h630v10h-630z M3440 2410h340v10h-340z M3810 2410h120v10h-120z M3940 2410h1180v10h-1180z M0 2420h1200v10h-1200z M1210 2420h20v10h-20z M1240 2420h50v10h-50z M1320 2420h280v10h-280z M1630 2420h630v10h-630z M3440 2420h370v10h-370z M3840 2420h80v10h-80z M3930 2420h1190v10h-1190z M0 2430h1240v10h-1240z M1250 2430h40v10h-40z M1310 2430h300v10h-300z M1630 2430h630v10h-630z M3440 2430h380v10h-380z M3840 2430h40v10h-40z M3890 2430h30v10h-30z M3930 2430h1190v10h-1190z M0 2440h1210v10h-1210z M1220 2440h20v10h-20z M1250 2440h40v10h-40z M1310 2440h300v10h-300z M1630 2440h630v10h-630z M3440 2440h390v10h-390z M3840 2440h40v10h-40z M3890 2440h20v10h-20z M3920 2440h1200v10h-1200z M0 2450h1240v10h-1240z M1260 2450h40v10h-40z M1310 2450h300v10h-300z M1630 2450h630v10h-630z M3440 2450h370v10h-370z M3830 2450h40v10h-40z M3880 2450h1240v10h-1240z M0 2460h1220v10h-1220z M1230 2460h20v10h-20z M1260 2460h40v10h-40z M1320 2460h290v10h-290z M1630 2460h630v10h-630z M3440 2460h370v10h-370z M3830 2460h40v10h-40z M3880 2460h20v10h-20z M3910 2460h1210v10h-1210z M0 2470h1250v10h-1250z M1260 2470h50v10h-50z M1320 2470h290v10h-290z M1630 2470h630v10h-630z M3440 2470h360v10h-360z M3820 2470h40v10h-40z M3870 2470h1250v10h-1250z M0 2480h1230v10h-1230z M1240 2480h20v10h-20z M1270 2480h40v10h-40z M1330 2480h280v10h-280z M1630 2480h630v10h-630z M3050 2480h20v10h-20z M3080 2480h180v10h-180z M3440 2480h360v10h-360z M3820 2480h40v10h-40z M3870 2480h20v10h-20z M3900 2480h1220v10h-1220z M0 2490h1260v10h-1260z M1270 2490h40v10h-40z M1330 2490h280v10h-280z M1640 2490h620v10h-620z M3030 2490h240v10h-240z M3440 2490h350v10h-350z M3820 2490h1300v10h-1300z M0 2500h1230v10h-1230z M1240 2500h30v10h-30z M1280 2500h40v10h-40z M1340 2500h270v10h-270z M1630 2500h630v10h-630z M3020 2500h270v10h-270z M3430 2500h360v10h-360z M3810 2500h40v10h-40z M3860 2500h30v10h-30z M3900 2500h1220v10h-1220z M0 2510h1240v10h-1240z M1250 2510h20v10h-20z M1280 2510h40v10h-40z M1340 2510h920v10h-920z M3000 2510h300v10h-300z M3430 2510h360v10h-360z M3810 2510h40v10h-40z M3860 2510h20v10h-20z M3890 2510h1230v10h-1230z M0 2520h1240v10h-1240z M1250 2520h80v10h-80z M1340 2520h920v10h-920z M2980 2520h340v10h-340z M3430 2520h350v10h-350z M3800 2520h1320v10h-1320z M0 2530h1260v10h-1260z M1270 2530h10v10h-10z M1290 2530h40v10h-40z M1350 2530h910v10h-910z M2970 2530h360v10h-360z M3430 2530h350v10h-350z M3800 2530h40v10h-40z M3850 2530h1270v10h-1270z M0 2540h1280v10h-1280z M1290 2540h40v10h-40z M1350 2540h620v10h-620z M1980 2540h280v10h-280z M2970 2540h370v10h-370z M3430 2540h340v10h-340z M3800 2540h1320v10h-1320z M0 2550h1250v10h-1250z M1260 2550h80v10h-80z M1350 2550h610v10h-610z M1980 2550h280v10h-280z M2980 2550h370v10h-370z M3430 2550h340v10h-340z M3790 2550h40v10h-40z M3840 2550h1280v10h-1280z M0 2560h1260v10h-1260z M1270 2560h20v10h-20z M1300 2560h40v10h-40z M1360 2560h600v10h-600z M1980 2560h280v10h-280z M2970 2560h380v10h-380z M3430 2560h340v10h-340z M3790 2560h40v10h-40z M3840 2560h20v10h-20z M3870 2560h1250v10h-1250z M0 2570h1290v10h-1290z M1300 2570h50v10h-50z M1360 2570h600v10h-600z M1990 2570h270v10h-270z M2960 2570h390v10h-390z M3430 2570h330v10h-330z M3780 2570h80v10h-80z M3870 2570h1250v10h-1250z M0 2580h1300v10h-1300z M1310 2580h40v10h-40z M1370 2580h580v10h-580z M1990 2580h270v10h-270z M2950 2580h410v10h-410z M3430 2580h330v10h-330z M3780 2580h40v10h-40z M3830 2580h20v10h-20z M3860 2580h1260v10h-1260z M0 2590h1300v10h-1300z M1310 2590h40v10h-40z M1370 2590h580v10h-580z M1990 2590h270v10h-270z M2950 2590h410v10h-410z M3430 2590h320v10h-320z M3770 2590h50v10h-50z M3830 2590h1290v10h-1290z M0 2600h1360v10h-1360z M1380 2600h560v10h-560z M2000 2600h260v10h-260z M2950 2600h290v10h-290z M3250 2600h110v10h-110z M3430 2600h320v10h-320z M3770 2600h40v10h-40z M3820 2600h1300v10h-1300z M0 2610h1280v10h-1280z M1290 2610h20v10h-20z M1320 2610h40v10h-40z M1380 2610h390v10h-390z M1780 2610h160v10h-160z M2000 2610h260v10h-260z M2950 2610h280v10h-280z M3250 2610h120v10h-120z M3430 2610h320v10h-320z M3770 2610h40v10h-40z M3820 2610h20v10h-20z M3850 2610h1270v10h-1270z M0 2620h1310v10h-1310z M1320 2620h50v10h-50z M1380 2620h200v10h-200z M1610 2620h90v10h-90z M1820 2620h120v10h-120z M2000 2620h260v10h-260z M2950 2620h280v10h-280z M3250 2620h120v10h-120z M3430 2620h310v10h-310z M3760 2620h1360v10h-1360z M0 2630h1280v10h-1280z M1290 2630h30v10h-30z M1330 2630h40v10h-40z M1390 2630h190v10h-190z M1830 2630h100v10h-100z M2010 2630h250v10h-250z M2940 2630h280v10h-280z M3250 2630h120v10h-120z M3420 2630h320v10h-320z M3760 2630h40v10h-40z M3810 2630h1310v10h-1310z M0 2640h1290v10h-1290z M1300 2640h20v10h-20z M1330 2640h50v10h-50z M1390 2640h190v10h-190z M1840 2640h90v10h-90z M2010 2640h250v10h-250z M2940 2640h90v10h-90z M3060 2640h90v10h-90z M3240 2640h130v10h-130z M3420 2640h310v10h-310z M3750 2640h50v10h-50z M3810 2640h1310v10h-1310z M0 2650h1290v10h-1290z M1300 2650h20v10h-20z M1330 2650h50v10h-50z M1400 2650h170v10h-170z M1830 2650h90v10h-90z M2010 2650h250v10h-250z M2940 2650h80v10h-80z M3070 2650h60v10h-60z M3240 2650h140v10h-140z M3420 2650h310v10h-310z M3750 2650h40v10h-40z M3800 2650h1320v10h-1320z M0 2660h1300v10h-1300z M1310 2660h20v10h-20z M1340 2660h40v10h-40z M1400 2660h160v10h-160z M1830 2660h90v10h-90z M2020 2660h240v10h-240z M2930 2660h90v10h-90z M3070 2660h20v10h-20z M3100 2660h30v10h-30z M3240 2660h140v10h-140z M3430 2660h300v10h-300z M3740 2660h50v10h-50z M3800 2660h20v10h-20z M3830 2660h1290v10h-1290z M0 2670h1330v10h-1330z M1340 2670h50v10h-50z M1410 2670h150v10h-150z M1630 2670h10v10h-10z M1760 2670h20v10h-20z M1830 2670h50v10h-50z M2150 2670h110v10h-110z M2930 2670h80v10h-80z M3070 2670h10v10h-10z M3110 2670h20v10h-20z M3240 2670h140v10h-140z M3430 2670h290v10h-290z M3740 2670h80v10h-80z M3830 2670h1290v10h-1290z M0 2680h1300v10h-1300z M1310 2680h30v10h-30z M1350 2680h40v10h-40z M1410 2680h150v10h-150z M1630 2680h40v10h-40z M1830 2680h50v10h-50z M2130 2680h130v10h-130z M2930 2680h80v10h-80z M3110 2680h20v10h-20z M3210 2680h20v10h-20z M3250 2680h140v10h-140z M3430 2680h290v10h-290z M3740 2680h40v10h-40z M3790 2680h20v10h-20z M3820 2680h1300v10h-1300z M0 2690h1310v10h-1310z M1320 2690h20v10h-20z M1350 2690h50v10h-50z M1410 2690h150v10h-150z M1830 2690h60v10h-60z M2120 2690h140v10h-140z M2930 2690h150v10h-150z M3110 2690h20v10h-20z M3180 2690h210v10h-210z M3430 2690h280v10h-280z M3730 2690h50v10h-50z M3790 2690h1330v10h-1330z M0 2700h1340v10h-1340z M1350 2700h50v10h-50z M1420 2700h150v10h-150z M1820 2700h70v10h-70z M2100 2700h160v10h-160z M2940 2700h160v10h-160z M3110 2700h20v10h-20z M3140 2700h250v10h-250z M3430 2700h280v10h-280z M3730 2700h40v10h-40z M3780 2700h30v10h-30z M3820 2700h1300v10h-1300z M0 2710h1350v10h-1350z M1360 2710h50v10h-50z M1420 2710h160v10h-160z M1820 2710h70v10h-70z M2090 2710h180v10h-180z M2940 2710h190v10h-190z M3140 2710h90v10h-90z M3240 2710h160v10h-160z M3430 2710h270v10h-270z M3720 2710h50v10h-50z M3780 2710h20v10h-20z M3810 2710h1310v10h-1310z M0 2720h1350v10h-1350z M1360 2720h50v10h-50z M1430 2720h220v10h-220z M1750 2720h140v10h-140z M2080 2720h240v10h-240z M2930 2720h180v10h-180z M3120 2720h120v10h-120z M3270 2720h130v10h-130z M3430 2720h270v10h-270z M3720 2720h1400v10h-1400z M0 2730h1320v10h-1320z M1330 2730h30v10h-30z M1370 2730h40v10h-40z M1430 2730h250v10h-250z M1720 2730h170v10h-170z M2060 2730h320v10h-320z M2910 2730h80v10h-80z M3000 2730h110v10h-110z M3130 2730h130v10h-130z M3280 2730h120v10h-120z M3420 2730h280v10h-280z M3710 2730h50v10h-50z M3770 2730h20v10h-20z M3800 2730h1320v10h-1320z M0 2740h1330v10h-1330z M1340 2740h20v10h-20z M1370 2740h50v10h-50z M1430 2740h460v10h-460z M2050 2740h410v10h-410z M2880 2740h110v10h-110z M3000 2740h20v10h-20z M3030 2740h30v10h-30z M3080 2740h30v10h-30z M3140 2740h40v10h-40z M3190 2740h30v10h-30z M3240 2740h20v10h-20z M3280 2740h130v10h-130z M3420 2740h270v10h-270z M3710 2740h1410v10h-1410z M0 2750h1420v10h-1420z M1430 2750h470v10h-470z M2040 2750h530v10h-530z M2790 2750h200v10h-200z M3020 2750h90v10h-90z M3140 2750h10v10h-10z M3200 2750h10v10h-10z M3280 2750h50v10h-50z M3340 2750h70v10h-70z M3420 2750h270v10h-270z M3700 2750h50v10h-50z M3760 2750h1360v10h-1360z M0 2760h1340v10h-1340z M1350 2760h20v10h-20z M1380 2760h520v10h-520z M2050 2760h940v10h-940z M3060 2760h50v10h-50z M3280 2760h60v10h-60z M3350 2760h60v10h-60z M3420 2760h260v10h-260z M3700 2760h1420v10h-1420z M0 2770h1340v10h-1340z M1350 2770h80v10h-80z M1440 2770h460v10h-460z M2050 2770h940v10h-940z M3090 2770h20v10h-20z M3140 2770h10v10h-10z M3280 2770h130v10h-130z M3420 2770h260v10h-260z M3700 2770h80v10h-80z M3790 2770h1330v10h-1330z M0 2780h1340v10h-1340z M1350 2780h30v10h-30z M1390 2780h40v10h-40z M1440 2780h250v10h-250z M1720 2780h180v10h-180z M2060 2780h930v10h-930z M3090 2780h20v10h-20z M3140 2780h10v10h-10z M3280 2780h400v10h-400z M3690 2780h50v10h-50z M3750 2780h1370v10h-1370z M0 2790h1350v10h-1350z M1360 2790h20v10h-20z M1390 2790h290v10h-290z M1720 2790h180v10h-180z M2060 2790h930v10h-930z M3090 2790h20v10h-20z M3130 2790h30v10h-30z M3270 2790h400v10h-400z M3690 2790h1430v10h-1430z M0 2800h1350v10h-1350z M1360 2800h320v10h-320z M1720 2800h180v10h-180z M1960 2800h30v10h-30z M2060 2800h930v10h-930z M3080 2800h30v10h-30z M3130 2800h30v10h-30z M3270 2800h400v10h-400z M3680 2800h50v10h-50z M3740 2800h1380v10h-1380z M0 2810h1390v10h-1390z M1400 2810h280v10h-280z M1720 2810h180v10h-180z M1940 2810h60v10h-60z M2070 2810h920v10h-920z M3080 2810h30v10h-30z M3140 2810h30v10h-30z M3270 2810h390v10h-390z M3680 2810h50v10h-50z M3740 2810h1380v10h-1380z M0 2820h1390v10h-1390z M1400 2820h290v10h-290z M1720 2820h170v10h-170z M1930 2820h90v10h-90z M2070 2820h920v10h-920z M3070 2820h40v10h-40z M3120 2820h50v10h-50z M3270 2820h390v10h-390z M3670 2820h50v10h-50z M3730 2820h20v10h-20z M3760 2820h1360v10h-1360z M0 2830h1290v10h-1290z M1300 2830h60v10h-60z M1370 2830h30v10h-30z M1410 2830h280v10h-280z M1720 2830h170v10h-170z M1910 2830h120v10h-120z M2070 2830h920v10h-920z M3070 2830h100v10h-100z M3270 2830h450v10h-450z M3730 2830h100v10h-100z M3840 2830h1280v10h-1280z M0 2840h1270v10h-1270z M1280 2840h90v10h-90z M1380 2840h20v10h-20z M1410 2840h270v10h-270z M1720 2840h130v10h-130z M1860 2840h30v10h-30z M1900 2840h140v10h-140z M2080 2840h920v10h-920z M3080 2840h80v10h-80z M3230 2840h20v10h-20z M3270 2840h440v10h-440z M3720 2840h1400v10h-1400z M0 2850h1330v10h-1330z M1340 2850h30v10h-30z M1380 2850h290v10h-290z M1730 2850h10v10h-10z M1750 2850h90v10h-90z M1860 2850h20v10h-20z M1890 2850h170v10h-170z M2080 2850h930v10h-930z M3090 2850h50v10h-50z M3200 2850h20v10h-20z M3230 2850h480v10h-480z M3720 2850h20v10h-20z M3750 2850h40v10h-40z M3800 2850h50v10h-50z M3860 2850h1260v10h-1260z M0 2860h1410v10h-1410z M1420 2860h110v10h-110z M1560 2860h70v10h-70z M1640 2860h50v10h-50z M1710 2860h50v10h-50z M1860 2860h210v10h-210z M2090 2860h920v10h-920z M3020 2860h20v10h-20z M3110 2860h20v10h-20z M3200 2860h530v10h-530z M3740 2860h20v10h-20z M3770 2860h10v10h-10z M3790 2860h70v10h-70z M3870 2860h1250v10h-1250z M0 2870h1250v10h-1250z M1260 2870h30v10h-30z M1300 2870h110v10h-110z M1420 2870h110v10h-110z M1640 2870h130v10h-130z M1850 2870h1160v10h-1160z M3020 2870h70v10h-70z M3150 2870h60v10h-60z M3240 2870h460v10h-460z M3710 2870h10v10h-10z M3730 2870h1390v10h-1390z M0 2880h1280v10h-1280z M1290 2880h20v10h-20z M1320 2880h100v10h-100z M1430 2880h110v10h-110z M1610 2880h200v10h-200z M1850 2880h1170v10h-1170z M3030 2880h140v10h-140z M3190 2880h10v10h-10z M3230 2880h470v10h-470z M3710 2880h100v10h-100z M3820 2880h50v10h-50z M3880 2880h1240v10h-1240z M0 2890h1270v10h-1270z M1280 2890h50v10h-50z M1360 2890h190v10h-190z M1590 2890h230v10h-230z M1850 2890h1170v10h-1170z M3060 2890h20v10h-20z M3180 2890h10v10h-10z M3230 2890h540v10h-540z M3790 2890h100v10h-100z M3900 2890h1220v10h-1220z M0 2900h1040v10h-1040z M1050 2900h20v10h-20z M1080 2900h10v10h-10z M1110 2900h80v10h-80z M1210 2900h50v10h-50z M1270 2900h100v10h-100z M1440 2900h110v10h-110z M1570 2900h260v10h-260z M1840 2900h1190v10h-1190z M3070 2900h20v10h-20z M3160 2900h30v10h-30z M3230 2900h450v10h-450z M3740 2900h110v10h-110z M3860 2900h30v10h-30z M3900 2900h10v10h-10z M3920 2900h90v10h-90z M4020 2900h1100v10h-1100z M0 2910h1130v10h-1130z M1150 2910h20v10h-20z M1180 2910h70v10h-70z M1260 2910h420v10h-420z M1740 2910h1290v10h-1290z M3080 2910h90v10h-90z M3220 2910h730v10h-730z M3990 2910h1130v10h-1130z M0 2920h1240v10h-1240z M1260 2920h40v10h-40z M1310 2920h1730v10h-1730z M3090 2920h60v10h-60z M3210 2920h1910v10h-1910z M0 2930h1020v10h-1020z M1030 2930h190v10h-190z M1250 2930h40v10h-40z M1340 2930h360v10h-360z M1740 2930h1310v10h-1310z M3090 2930h60v10h-60z M3210 2930h570v10h-570z M3810 2930h10v10h-10z M3830 2930h50v10h-50z M3910 2930h170v10h-170z M4100 2930h1020v10h-1020z M0 2940h1030v10h-1030z M1040 2940h70v10h-70z M1190 2940h100v10h-100z M1310 2940h10v10h-10z M1330 2940h10v10h-10z M1350 2940h270v10h-270z M1630 2940h30v10h-30z M1720 2940h40v10h-40z M1780 2940h1270v10h-1270z M3100 2940h50v10h-50z M3200 2940h580v10h-580z M3790 2940h130v10h-130z M4000 2940h1120v10h-1120z M0 2950h1280v10h-1280z M1330 2950h290v10h-290z M1650 2950h90v10h-90z M1780 2950h1280v10h-1280z M3190 2950h640v10h-640z M3840 2950h230v10h-230z M4080 2950h1040v10h-1040z M0 2960h1030v10h-1030z M1040 2960h240v10h-240z M1330 2960h290v10h-290z M1790 2960h1280v10h-1280z M3180 2960h1940v10h-1940z M0 2970h1040v10h-1040z M1050 2970h220v10h-220z M1320 2970h300v10h-300z M1790 2970h1290v10h-1290z M3170 2970h670v10h-670z M3850 2970h190v10h-190z M4050 2970h20v10h-20z M4080 2970h1040v10h-1040z M0 2980h1050v10h-1050z M1060 2980h20v10h-20z M1090 2980h120v10h-120z M1220 2980h10v10h-10z M1240 2980h40v10h-40z M1290 2980h10v10h-10z M1320 2980h300v10h-300z M1680 2980h60v10h-60z M1790 2980h1310v10h-1310z M3130 2980h760v10h-760z M3920 2980h110v10h-110z M4040 2980h1080v10h-1080z M0 2990h1050v10h-1050z M1060 2990h160v10h-160z M1240 2990h40v10h-40z M1290 2990h20v10h-20z M1320 2990h310v10h-310z M1690 2990h30v10h-30z M1780 2990h2050v10h-2050z M3840 2990h40v10h-40z M3910 2990h120v10h-120z M4040 2990h1080v10h-1080z M0 3000h1060v10h-1060z M1070 3000h20v10h-20z M1100 3000h190v10h-190z M1300 3000h10v10h-10z M1320 3000h320v10h-320z M1680 3000h60v10h-60z M1770 3000h2060v10h-2060z M3840 3000h180v10h-180z M4030 3000h20v10h-20z M4060 3000h1060v10h-1060z M0 3010h1070v10h-1070z M1080 3010h20v10h-20z M1110 3010h180v10h-180z M1300 3010h2520v10h-2520z M3830 3010h220v10h-220z M4060 3010h1060v10h-1060z M0 3020h1100v10h-1100z M1110 3020h2710v10h-2710z M3830 3020h180v10h-180z M4020 3020h30v10h-30z M4060 3020h1060v10h-1060z M0 3030h1080v10h-1080z M1090 3030h20v10h-20z M1120 3030h2920v10h-2920z M4050 3030h1070v10h-1070z M0 3040h1080v10h-1080z M1090 3040h2910v10h-2910z M4010 3040h1110v10h-1110z M0 3050h1120v10h-1120z M1130 3050h430v10h-430z M1570 3050h240v10h-240z M1820 3050h3300v10h-3300z M0 3060h1090v10h-1090z M1100 3060h470v10h-470z M1580 3060h2440v10h-2440z M4030 3060h1090v10h-1090z M0 3070h1410v10h-1410z M1420 3070h160v10h-160z M1610 3070h350v10h-350z M1990 3070h2020v10h-2020z M4020 3070h1100v10h-1100z M0 3080h1420v10h-1420z M1440 3080h160v10h-160z M1630 3080h320v10h-320z M1990 3080h2020v10h-2020z M4020 3080h1100v10h-1100z M0 3090h1370v10h-1370z M1400 3090h20v10h-20z M1450 3090h170v10h-170z M1660 3090h280v10h-280z M1980 3090h30v10h-30z M2020 3090h1980v10h-1980z M4010 3090h1110v10h-1110z M0 3100h1370v10h-1370z M1410 3100h20v10h-20z M1460 3100h200v10h-200z M1690 3100h240v10h-240z M1970 3100h30v10h-30z M2030 3100h1960v10h-1960z M4000 3100h1120v10h-1120z M0 3110h1380v10h-1380z M1420 3110h20v10h-20z M1470 3110h460v10h-460z M1960 3110h30v10h-30z M2040 3110h3080v10h-3080z M0 3120h1410v10h-1410z M1430 3120h20v10h-20z M1470 3120h450v10h-450z M1950 3120h30v10h-30z M2010 3120h1970v10h-1970z M3990 3120h1130v10h-1130z M0 3130h1460v10h-1460z M1470 3130h450v10h-450z M1940 3130h30v10h-30z M2000 3130h3120v10h-3120z M0 3140h1960v10h-1960z M1990 3140h3130v10h-3130z M0 3150h5120v10h-5120z M0 3160h5120v10h-5120z M0 3170h1100v10h-1100z M1110 3170h2900v10h-2900z M4020 3170h1100v10h-1100z M0 3180h4020v10h-4020z M4030 3180h1090v10h-1090z M0 3190h1100v10h-1100z M1110 3190h1910v10h-1910z M3150 3190h1970v10h-1970z M0 3200h3000v10h-3000z M3120 3200h900v10h-900z M4040 3200h1080v10h-1080z M0 3210h1090v10h-1090z M1100 3210h2930v10h-2930z M4040 3210h1080v10h-1080z M0 3220h4040v10h-4040z M4050 3220h1070v10h-1070z M0 3230h4040v10h-4040z M4050 3230h1070v10h-1070z M0 3240h1070v10h-1070z M1080 3240h2960v10h-2960z M4050 3240h1070v10h-1070z M0 3250h4050v10h-4050z M4060 3250h1060v10h-1060z M0 3260h1090v10h-1090z M1100 3260h10v10h-10z M1140 3260h2850v10h-2850z M4000 3260h20v10h-20z M4030 3260h30v10h-30z M4070 3260h1050v10h-1050z M0 3270h1150v10h-1150z M1160 3270h2640v10h-2640z M3810 3270h230v10h-230z M4050 3270h10v10h-10z M4070 3270h1050v10h-1050z M0 3280h1170v10h-1170z M1180 3280h2620v10h-2620z M3810 3280h130v10h-130z M3960 3280h1160v10h-1160z M0 3290h1190v10h-1190z M1200 3290h2600v10h-2600z M3810 3290h110v10h-110z M3930 3290h100v10h-100z M4040 3290h1080v10h-1080z M0 3300h1100v10h-1100z M1120 3300h90v10h-90z M1220 3300h2580v10h-2580z M3810 3300h90v10h-90z M3910 3300h80v10h-80z M4020 3300h1100v10h-1100z M0 3310h1150v10h-1150z M1160 3310h80v10h-80z M1250 3310h2550v10h-2550z M3810 3310h140v10h-140z M3960 3310h1160v10h-1160z M0 3320h1180v10h-1180z M1190 3320h2610v10h-2610z M3810 3320h120v10h-120z M3950 3320h1170v10h-1170z M0 3330h1250v10h-1250z M1260 3330h2660v10h-2660z M3930 3330h1190v10h-1190z M0 3340h1260v10h-1260z M1270 3340h2620v10h-2620z M3900 3340h1220v10h-1220z M0 3350h1260v10h-1260z M1270 3350h2580v10h-2580z M3860 3350h20v10h-20z M3890 3350h1230v10h-1230z M0 3360h1230v10h-1230z M1240 3360h10v10h-10z M1260 3360h10v10h-10z M1280 3360h2600v10h-2600z M3890 3360h1230v10h-1230z M0 3370h1240v10h-1240z M1250 3370h2590v10h-2590z M3850 3370h20v10h-20z M3880 3370h1240v10h-1240z M0 3380h1250v10h-1250z M1260 3380h20v10h-20z M1290 3380h2580v10h-2580z M3880 3380h1240v10h-1240z M0 3390h3830v10h-3830z M3840 3390h30v10h-30z M3880 3390h1240v10h-1240z M0 3400h1260v10h-1260z M1270 3400h20v10h-20z M1300 3400h2440v10h-2440z M3750 3400h70v10h-70z M3830 3400h1290v10h-1290z M0 3410h1300v10h-1300z M1310 3410h2430v10h-2430z M3750 3410h70v10h-70z M3830 3410h20v10h-20z M3860 3410h1260v10h-1260z M0 3420h3810v10h-3810z M3820 3420h20v10h-20z M3860 3420h1260v10h-1260z M0 3430h1270v10h-1270z M1280 3430h30v10h-30z M1320 3430h2480v10h-2480z M3810 3430h1310v10h-1310z M0 3440h1280v10h-1280z M1290 3440h30v10h-30z M1330 3440h2470v10h-2470z M3810 3440h1310v10h-1310z M0 3450h1290v10h-1290z M1300 3450h20v10h-20z M1330 3450h50v10h-50z M1390 3450h2400v10h-2400z M3800 3450h1320v10h-1320z M0 3460h1300v10h-1300z M1310 3460h70v10h-70z M1390 3460h50v10h-50z M1460 3460h2330v10h-2330z M3800 3460h20v10h-20z M3830 3460h1290v10h-1290z M0 3470h1380v10h-1380z M1390 3470h20v10h-20z M1510 3470h2120v10h-2120z M3640 3470h10v10h-10z M3670 3470h20v10h-20z M3700 3470h30v10h-30z M3740 3470h50v10h-50z M3800 3470h10v10h-10z M3830 3470h1290v10h-1290z M0 3480h1290v10h-1290z M1300 3480h80v10h-80z M1390 3480h10v10h-10z M1510 3480h190v10h-190z M1710 3480h1900v10h-1900z M3720 3480h10v10h-10z M3740 3480h50v10h-50z M3800 3480h1320v10h-1320z M0 3490h1290v10h-1290z M1300 3490h80v10h-80z M1550 3490h150v10h-150z M1710 3490h1880v10h-1880z M3740 3490h50v10h-50z M3800 3490h1320v10h-1320z M0 3500h1380v10h-1380z M1630 3500h70v10h-70z M1710 3500h1730v10h-1730z M3450 3500h60v10h-60z M3740 3500h50v10h-50z M3800 3500h1320v10h-1320z M0 3510h1300v10h-1300z M1310 3510h70v10h-70z M1600 3510h100v10h-100z M1710 3510h200v10h-200z M1920 3510h180v10h-180z M2110 3510h1330v10h-1330z M3450 3510h60v10h-60z M3740 3510h50v10h-50z M3800 3510h20v10h-20z M3830 3510h1290v10h-1290z M0 3520h1300v10h-1300z M1310 3520h20v10h-20z M1340 3520h40v10h-40z M1610 3520h90v10h-90z M1710 3520h1630v10h-1630z M3350 3520h90v10h-90z M3450 3520h20v10h-20z M3740 3520h50v10h-50z M3800 3520h1320v10h-1320z M0 3530h1300v10h-1300z M1310 3530h20v10h-20z M1340 3530h40v10h-40z M1680 3530h530v10h-530z M2220 3530h1230v10h-1230z M3740 3530h50v10h-50z M3800 3530h1320v10h-1320z M0 3540h1330v10h-1330z M1340 3540h40v10h-40z M1690 3540h20v10h-20z M1790 3540h1570v10h-1570z M3740 3540h50v10h-50z M3800 3540h20v10h-20z M3830 3540h1290v10h-1290z M0 3550h1330v10h-1330z M1340 3550h40v10h-40z M1690 3550h1730v10h-1730z M3740 3550h50v10h-50z M3800 3550h20v10h-20z M3830 3550h1290v10h-1290z M0 3560h1330v10h-1330z M1340 3560h40v10h-40z M1700 3560h30v10h-30z M1810 3560h480v10h-480z M2300 3560h110v10h-110z M2480 3560h120v10h-120z M2610 3560h10v10h-10z M2670 3560h60v10h-60z M2800 3560h520v10h-520z M3340 3560h40v10h-40z M3740 3560h50v10h-50z M3800 3560h20v10h-20z M3830 3560h1290v10h-1290z M0 3570h1300v10h-1300z M1310 3570h20v10h-20z M1340 3570h40v10h-40z M1720 3570h100v10h-100z M1830 3570h70v10h-70z M1960 3570h1210v10h-1210z M3190 3570h120v10h-120z M3320 3570h70v10h-70z M3740 3570h40v10h-40z M3790 3570h20v10h-20z M3820 3570h1300v10h-1300z M0 3580h1300v10h-1300z M1310 3580h20v10h-20z M1340 3580h40v10h-40z M1720 3580h1500v10h-1500z M3230 3580h110v10h-110z M3350 3580h190v10h-190z M3740 3580h40v10h-40z M3790 3580h20v10h-20z M3820 3580h1300v10h-1300z M0 3590h1330v10h-1330z M1340 3590h40v10h-40z M1720 3590h110v10h-110z M1850 3590h10v10h-10z M1870 3590h590v10h-590z M2500 3590h10v10h-10z M2600 3590h30v10h-30z M2790 3590h360v10h-360z M3160 3590h60v10h-60z M3230 3590h70v10h-70z M3310 3590h30v10h-30z M3350 3590h130v10h-130z M3740 3590h40v10h-40z M3790 3590h1330v10h-1330z M0 3600h1330v10h-1330z M1340 3600h40v10h-40z M1730 3600h100v10h-100z M1870 3600h70v10h-70z M1970 3600h1180v10h-1180z M3160 3600h60v10h-60z M3230 3600h70v10h-70z M3310 3600h70v10h-70z M3740 3600h40v10h-40z M3790 3600h1330v10h-1330z M0 3610h1330v10h-1330z M1340 3610h40v10h-40z M1730 3610h100v10h-100z M1870 3610h120v10h-120z M2000 3610h850v10h-850z M2860 3610h360v10h-360z M3230 3610h70v10h-70z M3310 3610h70v10h-70z M3740 3610h40v10h-40z M3790 3610h1330v10h-1330z M0 3620h1300v10h-1300z M1310 3620h20v10h-20z M1340 3620h40v10h-40z M1730 3620h50v10h-50z M1830 3620h30v10h-30z M1870 3620h1350v10h-1350z M3230 3620h10v10h-10z M3260 3620h20v10h-20z M3310 3620h60v10h-60z M3740 3620h40v10h-40z M3790 3620h1330v10h-1330z M0 3630h1300v10h-1300z M1310 3630h20v10h-20z M1340 3630h40v10h-40z M1730 3630h130v10h-130z M1870 3630h70v10h-70z M1990 3630h700v10h-700z M2700 3630h10v10h-10z M2720 3630h260v10h-260z M2990 3630h150v10h-150z M3150 3630h70v10h-70z M3230 3630h60v10h-60z M3300 3630h70v10h-70z M3740 3630h40v10h-40z M3790 3630h20v10h-20z M3820 3630h1300v10h-1300z M0 3640h1300v10h-1300z M1310 3640h20v10h-20z M1340 3640h40v10h-40z M1720 3640h100v10h-100z M1840 3640h20v10h-20z M1870 3640h670v10h-670z M2550 3640h10v10h-10z M2570 3640h350v10h-350z M2930 3640h210v10h-210z M3150 3640h140v10h-140z M3300 3640h70v10h-70z M3740 3640h1380v10h-1380z M0 3650h1300v10h-1300z M1310 3650h20v10h-20z M1340 3650h40v10h-40z M1720 3650h110v10h-110z M1850 3650h10v10h-10z M1870 3650h690v10h-690z M2570 3650h240v10h-240z M2820 3650h240v10h-240z M3070 3650h70v10h-70z M3150 3650h70v10h-70z M3230 3650h10v10h-10z M3250 3650h30v10h-30z M3300 3650h70v10h-70z M3740 3650h30v10h-30z M3780 3650h1340v10h-1340z M0 3660h1330v10h-1330z M1340 3660h40v10h-40z M1720 3660h110v10h-110z M1850 3660h10v10h-10z M1870 3660h110v10h-110z M1990 3660h550v10h-550z M2550 3660h10v10h-10z M2570 3660h250v10h-250z M2830 3660h230v10h-230z M3070 3660h70v10h-70z M3150 3660h70v10h-70z M3250 3660h30v10h-30z M3290 3660h80v10h-80z M3460 3660h20v10h-20z M3740 3660h30v10h-30z M3780 3660h1340v10h-1340z M0 3670h1320v10h-1320z M1340 3670h40v10h-40z M1720 3670h100v10h-100z M1870 3670h670v10h-670z M2550 3670h10v10h-10z M2570 3670h110v10h-110z M2700 3670h360v10h-360z M3070 3670h70v10h-70z M3150 3670h60v10h-60z M3230 3670h50v10h-50z M3290 3670h70v10h-70z M3460 3670h20v10h-20z M3740 3670h30v10h-30z M3780 3670h30v10h-30z M3820 3670h1300v10h-1300z M0 3680h1310v10h-1310z M1320 3680h10v10h-10z M1340 3680h40v10h-40z M1720 3680h30v10h-30z M1760 3680h10v10h-10z M1870 3680h680v10h-680z M2560 3680h120v10h-120z M2690 3680h370v10h-370z M3070 3680h30v10h-30z M3130 3680h80v10h-80z M3220 3680h60v10h-60z M3290 3680h70v10h-70z M3450 3680h30v10h-30z M3740 3680h30v10h-30z M3780 3680h30v10h-30z M3820 3680h1300v10h-1300z M0 3690h1310v10h-1310z M1320 3690h60v10h-60z M1720 3690h20v10h-20z M1750 3690h20v10h-20z M1870 3690h80v10h-80z M1960 3690h570v10h-570z M2540 3690h10v10h-10z M2560 3690h120v10h-120z M2690 3690h110v10h-110z M2810 3690h240v10h-240z M3060 3690h20v10h-20z M3140 3690h70v10h-70z M3290 3690h170v10h-170z M3740 3690h30v10h-30z M3780 3690h30v10h-30z M3820 3690h1300v10h-1300z M0 3700h1310v10h-1310z M1320 3700h20v10h-20z M1350 3700h40v10h-40z M1720 3700h20v10h-20z M1870 3700h660v10h-660z M2540 3700h10v10h-10z M2560 3700h120v10h-120z M2720 3700h80v10h-80z M2810 3700h30v10h-30z M2850 3700h200v10h-200z M3060 3700h20v10h-20z M3140 3700h310v10h-310z M3740 3700h30v10h-30z M3780 3700h1340v10h-1340z M0 3710h1310v10h-1310z M1320 3710h20v10h-20z M1350 3710h90v10h-90z M1720 3710h20v10h-20z M1750 3710h20v10h-20z M1870 3710h60v10h-60z M1960 3710h570v10h-570z M2540 3710h10v10h-10z M2560 3710h120v10h-120z M2690 3710h40v10h-40z M2740 3710h50v10h-50z M2800 3710h250v10h-250z M3100 3710h40v10h-40z M3150 3710h300v10h-300z M3690 3710h80v10h-80z M3780 3710h20v10h-20z M3810 3710h1310v10h-1310z M0 3720h1340v10h-1340z M1350 3720h130v10h-130z M1730 3720h50v10h-50z M1870 3720h60v10h-60z M1990 3720h10v10h-10z M2010 3720h270v10h-270z M2290 3720h240v10h-240z M2540 3720h10v10h-10z M2560 3720h120v10h-120z M2690 3720h20v10h-20z M2740 3720h90v10h-90z M2840 3720h20v10h-20z M2870 3720h270v10h-270z M3150 3720h240v10h-240z M3650 3720h120v10h-120z M3780 3720h20v10h-20z M3810 3720h1310v10h-1310z M0 3730h1340v10h-1340z M1350 3730h180v10h-180z M1870 3730h60v10h-60z M1970 3730h280v10h-280z M2270 3730h180v10h-180z M2460 3730h70v10h-70z M2540 3730h10v10h-10z M2560 3730h110v10h-110z M2680 3730h20v10h-20z M2710 3730h70v10h-70z M2790 3730h40v10h-40z M2840 3730h10v10h-10z M2860 3730h20v10h-20z M2920 3730h220v10h-220z M3150 3730h140v10h-140z M3600 3730h170v10h-170z M3780 3730h1340v10h-1340z M0 3740h1330v10h-1330z M1340 3740h10v10h-10z M1380 3740h210v10h-210z M2010 3740h10v10h-10z M2030 3740h420v10h-420z M2460 3740h380v10h-380z M2860 3740h20v10h-20z M2890 3740h20v10h-20z M2920 3740h180v10h-180z M3150 3740h20v10h-20z M3540 3740h190v10h-190z M3790 3740h1330v10h-1330z M0 3750h1400v10h-1400z M1420 3750h210v10h-210z M2060 3750h240v10h-240z M2310 3750h120v10h-120z M2440 3750h10v10h-10z M2460 3750h230v10h-230z M2700 3750h70v10h-70z M2780 3750h60v10h-60z M2900 3750h10v10h-10z M2920 3750h100v10h-100z M3490 3750h190v10h-190z M3740 3750h1380v10h-1380z M0 3760h1330v10h-1330z M1340 3760h110v10h-110z M1470 3760h220v10h-220z M1950 3760h110v10h-110z M2090 3760h60v10h-60z M2270 3760h40v10h-40z M2320 3760h90v10h-90z M2430 3760h10v10h-10z M2470 3760h140v10h-140z M2620 3760h70v10h-70z M2700 3760h50v10h-50z M2780 3760h50v10h-50z M2900 3760h10v10h-10z M2920 3760h60v10h-60z M3430 3760h210v10h-210z M3680 3760h1440v10h-1440z M0 3770h1340v10h-1340z M1350 3770h140v10h-140z M1520 3770h220v10h-220z M2050 3770h40v10h-40z M2170 3770h80v10h-80z M2270 3770h40v10h-40z M2920 3770h30v10h-30z M3380 3770h210v10h-210z M3630 3770h140v10h-140z M3780 3770h1340v10h-1340z M0 3780h1380v10h-1380z M1390 3780h20v10h-20z M1420 3780h120v10h-120z M1580 3780h220v10h-220z M3320 3780h220v10h-220z M3600 3780h100v10h-100z M3710 3780h10v10h-10z M3740 3780h1380v10h-1380z M0 3790h1460v10h-1460z M1470 3790h60v10h-60z M1540 3790h50v10h-50z M1630 3790h220v10h-220z M2910 3790h10v10h-10z M3270 3790h210v10h-210z M3550 3790h40v10h-40z M3600 3790h1520v10h-1520z M0 3800h1510v10h-1510z M1520 3800h130v10h-130z M1700 3800h240v10h-240z M3200 3800h220v10h-220z M3490 3800h10v10h-10z M3510 3800h90v10h-90z M3610 3800h1510v10h-1510z M0 3810h1520v10h-1520z M1530 3810h10v10h-10z M1550 3810h10v10h-10z M1570 3810h140v10h-140z M1740 3810h280v10h-280z M3110 3810h260v10h-260z M3420 3810h20v10h-20z M3450 3810h100v10h-100z M3560 3810h30v10h-30z M3600 3810h1520v10h-1520z M0 3820h1580v10h-1580z M1600 3820h160v10h-160z M1770 3820h320v10h-320z M2710 3820h190v10h-190z M3010 3820h340v10h-340z M3370 3820h120v10h-120z M3510 3820h10v10h-10z M3530 3820h1590v10h-1590z M0 3830h1630v10h-1630z M1640 3830h120v10h-120z M1770 3830h410v10h-410z M2590 3830h90v10h-90z M2920 3830h510v10h-510z M3450 3830h30v10h-30z M3490 3830h1630v10h-1630z M0 3840h1680v10h-1680z M1690 3840h20v10h-20z M1730 3840h20v10h-20z M1760 3840h630v10h-630z M2680 3840h680v10h-680z M3370 3840h20v10h-20z M3400 3840h20v10h-20z M3430 3840h1690v10h-1690z M0 3850h1710v10h-1710z M1720 3850h20v10h-20z M1760 3850h1610v10h-1610z M3380 3850h20v10h-20z M3410 3850h1710v10h-1710z M0 3860h1740v10h-1740z M1750 3860h1620v10h-1620z M3380 3860h1740v10h-1740z M0 3870h1700v10h-1700z M1710 3870h20v10h-20z M1740 3870h1640v10h-1640z M3390 3870h1730v10h-1730z M0 3880h1730v10h-1730z M1740 3880h1650v10h-1650z M3400 3880h1720v10h-1720z M0 3890h1700v10h-1700z M1710 3890h30v10h-30z M1750 3890h1620v10h-1620z M3390 3890h30v10h-30z M3430 3890h1690v10h-1690z M0 3900h1760v10h-1760z M1770 3900h330v10h-330z M2130 3900h120v10h-120z M2360 3900h90v10h-90z M2460 3900h10v10h-10z M2480 3900h130v10h-130z M2640 3900h250v10h-250z M3000 3900h350v10h-350z M3370 3900h40v10h-40z M3420 3900h1700v10h-1700z M0 3910h1720v10h-1720z M1730 3910h40v10h-40z M1780 3910h320v10h-320z M2140 3910h110v10h-110z M2360 3910h80v10h-80z M2490 3910h100v10h-100z M2690 3910h40v10h-40z M2760 3910h60v10h-60z M2850 3910h40v10h-40z M3010 3910h330v10h-330z M3350 3910h1770v10h-1770z M0 3920h1730v10h-1730z M1740 3920h50v10h-50z M1800 3920h300v10h-300z M2130 3920h120v10h-120z M2280 3920h160v10h-160z M2500 3920h70v10h-70z M2620 3920h30v10h-30z M2690 3920h40v10h-40z M2760 3920h60v10h-60z M2850 3920h40v10h-40z M2920 3920h400v10h-400z M3340 3920h40v10h-40z M3400 3920h1720v10h-1720z M0 3930h1740v10h-1740z M1760 3930h40v10h-40z M1810 3930h290v10h-290z M2130 3930h120v10h-120z M2280 3930h150v10h-150z M2460 3930h10v10h-10z M2500 3930h70v10h-70z M2600 3930h130v10h-130z M2760 3930h60v10h-60z M2850 3930h40v10h-40z M2920 3930h390v10h-390z M3320 3930h20v10h-20z M3350 3930h1770v10h-1770z M0 3940h1810v10h-1810z M1820 3940h280v10h-280z M2130 3940h120v10h-120z M2330 3940h100v10h-100z M2460 3940h20v10h-20z M2510 3940h60v10h-60z M2600 3940h130v10h-130z M2760 3940h60v10h-60z M2850 3940h40v10h-40z M2980 3940h320v10h-320z M3310 3940h40v10h-40z M3360 3940h1760v10h-1760z M0 3950h1780v10h-1780z M1790 3950h310v10h-310z M2130 3950h120v10h-120z M2280 3950h140v10h-140z M2460 3950h20v10h-20z M2510 3950h60v10h-60z M2600 3950h40v10h-40z M2690 3950h40v10h-40z M2760 3950h60v10h-60z M2850 3950h40v10h-40z M2930 3950h370v10h-370z M3310 3950h1810v10h-1810z M0 3960h2100v10h-2100z M2140 3960h110v10h-110z M2280 3960h140v10h-140z M2520 3960h50v10h-50z M2600 3960h60v10h-60z M2690 3960h40v10h-40z M2760 3960h60v10h-60z M2850 3960h40v10h-40z M2920 3960h2200v10h-2200z M0 3970h1790v10h-1790z M1800 3970h20v10h-20z M1830 3970h270v10h-270z M2200 3970h50v10h-50z M2360 3970h50v10h-50z M2440 3970h50v10h-50z M2530 3970h40v10h-40z M2610 3970h40v10h-40z M2690 3970h40v10h-40z M2780 3970h30v10h-30z M2850 3970h40v10h-40z M3000 3970h330v10h-330z M3340 3970h1780v10h-1780z M0 3980h2110v10h-2110z M2200 3980h50v10h-50z M2360 3980h40v10h-40z M2430 3980h70v10h-70z M2530 3980h50v10h-50z M2690 3980h50v10h-50z M2830 3980h60v10h-60z M3000 3980h290v10h-290z M3300 3980h1820v10h-1820z M0 3990h1830v10h-1830z M1870 3990h730v10h-730z M2650 3990h600v10h-600z M3300 3990h20v10h-20z M3330 3990h1790v10h-1790z M0 4000h1810v10h-1810z M1820 4000h80v10h-80z M1970 4000h1180v10h-1180z M3250 4000h1870v10h-1870z M0 4010h3080v10h-3080z M3090 4010h100v10h-100z M3200 4010h1920v10h-1920z M0 4020h1840v10h-1840z M1860 4020h20v10h-20z M1890 4020h1190v10h-1190z M3100 4020h150v10h-150z M3260 4020h1860v10h-1860z M0 4030h1890v10h-1890z M1930 4030h1150v10h-1150z M3100 4030h70v10h-70z M3180 4030h30v10h-30z M3220 4030h10v10h-10z M3240 4030h1880v10h-1880z M0 4040h1930v10h-1930z M1940 4040h20v10h-20z M1970 4040h60v10h-60z M2040 4040h1040v10h-1040z M3090 4040h70v10h-70z M3170 4040h30v10h-30z M3210 4040h1910v10h-1910z M0 4050h2040v10h-2040z M2090 4050h960v10h-960z M3080 4050h60v10h-60z M3150 4050h1970v10h-1970z M0 4060h1940v10h-1940z M1950 4060h40v10h-40z M2000 4060h60v10h-60z M2070 4060h10v10h-10z M2090 4060h30v10h-30z M2150 4060h820v10h-820z M3030 4060h20v10h-20z M3070 4060h60v10h-60z M3140 4060h40v10h-40z M3190 4060h1930v10h-1930z M0 4070h2000v10h-2000z M2010 4070h60v10h-60z M2090 4070h770v10h-770z M2940 4070h100v10h-100z M3050 4070h70v10h-70z M3130 4070h1990v10h-1990z M0 4080h2090v10h-2090z M2110 4080h230v10h-230z M2360 4080h380v10h-380z M2830 4080h190v10h-190z M3040 4080h60v10h-60z M3110 4080h40v10h-40z M3160 4080h1960v10h-1960z M0 4090h1980v10h-1980z M1990 4090h110v10h-110z M2120 4090h890v10h-890z M3030 4090h60v10h-60z M3100 4090h2020v10h-2020z M0 4100h1990v10h-1990z M2000 4100h40v10h-40z M2050 4100h70v10h-70z M2140 4100h850v10h-850z M3010 4100h60v10h-60z M3090 4100h2030v10h-2030z M0 4110h2000v10h-2000z M2010 4110h120v10h-120z M2150 4110h820v10h-820z M3000 4110h60v10h-60z M3070 4110h40v10h-40z M3120 4110h2000v10h-2000z M0 4120h2020v10h-2020z M2030 4120h40v10h-40z M2080 4120h70v10h-70z M2170 4120h790v10h-790z M2980 4120h70v10h-70z M3060 4120h2060v10h-2060z M0 4130h2080v10h-2080z M2090 4130h70v10h-70z M2170 4130h780v10h-780z M2970 4130h60v10h-60z M3050 4130h30v10h-30z M3100 4130h2020v10h-2020z M0 4140h2100v10h-2100z M2110 4140h70v10h-70z M2200 4140h730v10h-730z M2960 4140h60v10h-60z M3040 4140h2080v10h-2080z M0 4150h2060v10h-2060z M2070 4150h40v10h-40z M2120 4150h70v10h-70z M2200 4150h710v10h-710z M2940 4150h70v10h-70z M3030 4150h2090v10h-2090z M0 4160h2070v10h-2070z M2090 4160h810v10h-810z M2930 4160h60v10h-60z M3010 4160h2110v10h-2110z M0 4170h2140v10h-2140z M2150 4170h730v10h-730z M2910 4170h70v10h-70z M3000 4170h2120v10h-2120z M0 4180h2150v10h-2150z M2160 4180h710v10h-710z M2900 4180h60v10h-60z M2980 4180h40v10h-40z M3030 4180h2090v10h-2090z M0 4190h2860v10h-2860z M2880 4190h70v10h-70z M2970 4190h2150v10h-2150z M0 4200h2180v10h-2180z M2190 4200h70v10h-70z M2270 4200h570v10h-570z M2870 4200h70v10h-70z M2960 4200h2160v10h-2160z M0 4210h2140v10h-2140z M2160 4210h130v10h-130z M2300 4210h530v10h-530z M2860 4210h60v10h-60z M2950 4210h20v10h-20z M2980 4210h2140v10h-2140z M0 4220h2210v10h-2210z M2220 4220h590v10h-590z M2840 4220h70v10h-70z M2930 4220h2190v10h-2190z M0 4230h2170v10h-2170z M2180 4230h620v10h-620z M2820 4230h70v10h-70z M2910 4230h30v10h-30z M2960 4230h2160v10h-2160z M0 4240h2190v10h-2190z M2200 4240h40v10h-40z M2250 4240h530v10h-530z M2810 4240h70v10h-70z M2890 4240h40v10h-40z M2940 4240h2180v10h-2180z M0 4250h2770v10h-2770z M2790 4250h70v10h-70z M2880 4250h30v10h-30z M2930 4250h2190v10h-2190z M0 4260h2220v10h-2220z M2230 4260h520v10h-520z M2780 4260h70v10h-70z M2870 4260h2250v10h-2250z M0 4270h2280v10h-2280z M2290 4270h450v10h-450z M2770 4270h70v10h-70z M2850 4270h2270v10h-2270z M0 4280h2300v10h-2300z M2310 4280h410v10h-410z M2750 4280h70v10h-70z M2830 4280h2290v10h-2290z M0 4290h2710v10h-2710z M2740 4290h70v10h-70z M2820 4290h40v10h-40z M2870 4290h2250v10h-2250z M0 4300h2270v10h-2270z M2280 4300h410v10h-410z M2720 4300h70v10h-70z M2820 4300h20v10h-20z M2850 4300h2270v10h-2270z M0 4310h2340v10h-2340z M2350 4310h320v10h-320z M2710 4310h70v10h-70z M2790 4310h2330v10h-2330z M0 4320h2300v10h-2300z M2310 4320h150v10h-150z M2470 4320h190v10h-190z M2690 4320h70v10h-70z M2780 4320h30v10h-30z M2830 4320h2290v10h-2290z M0 4330h2370v10h-2370z M2380 4330h70v10h-70z M2460 4330h10v10h-10z M2480 4330h170v10h-170z M2670 4330h80v10h-80z M2770 4330h2350v10h-2350z M0 4340h2330v10h-2330z M2350 4340h120v10h-120z M2480 4340h10v10h-10z M2500 4340h130v10h-130z M2660 4340h70v10h-70z M2740 4340h50v10h-50z M2800 4340h2320v10h-2320z M0 4350h2480v10h-2480z M2490 4350h10v10h-10z M2510 4350h110v10h-110z M2640 4350h80v10h-80z M2730 4350h40v10h-40z M2780 4350h2340v10h-2340z M0 4360h2370v10h-2370z M2380 4360h120v10h-120z M2530 4360h70v10h-70z M2630 4360h70v10h-70z M2720 4360h40v10h-40z M2770 4360h2350v10h-2350z M0 4370h2430v10h-2430z M2440 4370h70v10h-70z M2520 4370h10v10h-10z M2540 4370h50v10h-50z M2610 4370h70v10h-70z M2700 4370h2420v10h-2420z M0 4380h2400v10h-2400z M2410 4380h120v10h-120z M2560 4380h10v10h-10z M2600 4380h70v10h-70z M2690 4380h30v10h-30z M2740 4380h2380v10h-2380z M0 4390h2460v10h-2460z M2470 4390h70v10h-70z M2560 4390h10v10h-10z M2580 4390h70v10h-70z M2670 4390h40v10h-40z M2720 4390h2400v10h-2400z M0 4400h2560v10h-2560z M2570 4400h70v10h-70z M2660 4400h30v10h-30z M2700 4400h2420v10h-2420z M0 4410h2490v10h-2490z M2500 4410h120v10h-120z M2640 4410h40v10h-40z M2690 4410h2430v10h-2430z M0 4420h2510v10h-2510z M2520 4420h90v10h-90z M2630 4420h40v10h-40z M2680 4420h2440v10h-2440z M0 4430h2520v10h-2520z M2530 4430h60v10h-60z M2610 4430h2510v10h-2510z M0 4440h2580v10h-2580z M2590 4440h2530v10h-2530z M0 4450h2500v10h-2500z M2510 4450h40v10h-40z M2570 4450h2550v10h-2550z M0 4460h5120v10h-5120z M0 4470h2530v10h-2530z M2540 4470h40v10h-40z M2590 4470h2530v10h-2530z M0 4480h5120v10h-5120z M0 4490h5120v10h-5120z M0 4500h5120v10h-5120z M0 4510h5120v10h-5120z M0 4520h5120v10h-5120z M0 4530h5120v10h-5120z M0 4540h5120v10h-5120z M0 4550h5120v10h-5120z M0 4560h5120v10h-5120z M0 4570h5120v10h-5120z M0 4580h5120v10h-5120z M0 4590h5120v10h-5120z M0 4600h5120v10h-5120z M0 4610h5120v10h-5120z M0 4620h5120v10h-5120z M0 4630h5120v10h-5120z M0 4640h5120v10h-5120z M0 4650h5120v10h-5120z M0 4660h5120v10h-5120z M0 4670h5120v10h-5120z M0 4680h5120v10h-5120z M0 4690h5120v10h-5120z M0 4700h5120v10h-5120z M0 4710h5120v10h-5120z M0 4720h5120v10h-5120z M0 4730h5120v10h-5120z M0 4740h5120v10h-5120z M0 4750h5120v10h-5120z M0 4760h5120v10h-5120z M0 4770h5120v10h-5120z M0 4780h5120v10h-5120z M0 4790h5120v10h-5120z M0 4800h5120v10h-5120z M0 4810h5120v10h-5120z M0 4820h5120v10h-5120z M0 4830h5120v10h-5120z M0 4840h5120v10h-5120z M0 4850h5120v10h-5120z M0 4860h5120v10h-5120z M0 4870h5120v10h-5120z M0 4880h5120v10h-5120z M0 4890h5120v10h-5120z M0 4900h5120v10h-5120z M0 4910h5120v10h-5120z M0 4920h5120v10h-5120z M0 4930h5120v10h-5120z M0 4940h5120v10h-5120z M0 4950h5120v10h-5120z M0 4960h5120v10h-5120z M0 4970h5120v10h-5120z M0 4980h5120v10h-5120z M0 4990h5120v10h-5120z M0 5000h5120v10h-5120z M0 5010h5120v10h-5120z M0 5020h5120v10h-5120z M0 5030h5120v10h-5120z M0 5040h5120v10h-5120z M0 5050h5120v10h-5120z M0 5060h5120v10h-5120z M0 5070h5120v10h-5120z M0 5080h5120v10h-5120z M0 5090h5120v10h-5120z M0 5100h5120v10h-5120z M0 5110h5120v10h-5120z" />
  </g>
</svg>